# xmcd
#
# Track frame offsets: 
#        150
#        13504
#        25370
#        37620
#        51077
#        62486
#        73344
#        82689
#        98745
#        109799
#        121136
#        133057
#        143099
#        154790
#        166463
#        177471
#        190300
#        201885
#        213219
#
# Disc length: 2986 seconds
#
# Revision: 0
# Processed by: cddbd v1.5.2PL0 Copyright (c) Steve Scherf et al.
# Submitted via: ExactAudioCopy v1.1
#
DISCID=fe0ba813
DTITLE=Bobby Blue Bland - absolutely essential collection CD2
DYEAR=1900
DGENRE=Soul
TTITLE0=further up the road
TTITLE1=I can't put you down
TTITLE2=it's my life baby
TTITLE3=no blow no show
TTITLE4=you've got bad intentions
TTITLE5=sometime tomorrow
TTITLE6=lead me on
TTITLE7=blues in the night
TTITLE8=you got me (where you want me)
TTITLE9=the feeling is gone
TTITLE10=little boy blue
TTITLE11=blue moon
TTITLE12=I'm not ashamed
TTITLE13=yield not to temptation
TTITLE14=who will the next fool be?
TTITLE15=36-22-36
TTITLE16=two steps from the blues
TTITLE17=call on me
TTITLE18=good lovin'
EXTD=
EXTT0=
EXTT1=
EXTT2=
EXTT3=
EXTT4=
EXTT5=
EXTT6=
EXTT7=
EXTT8=
EXTT9=
EXTT10=
EXTT11=
EXTT12=
EXTT13=
EXTT14=
EXTT15=
EXTT16=
EXTT17=
EXTT18=
PLAYORDER=
